<?xml version="1.0" encoding="UTF-8" standalone="no"?>
<!DOCTYPE svg PUBLIC "-//W3C//DTD SVG 1.1//EN"
 "http://www.w3.org/Graphics/SVG/1.1/DTD/svg11.dtd">
<!-- Generated by graphviz version 2.38.0 (20140413.2041)
 -->
<!-- Title: %3 Pages: 1 -->
<svg width="1285pt" height="1154pt"
 viewBox="0.00 0.00 1285.11 1153.65" xmlns="http://www.w3.org/2000/svg" xmlns:xlink="http://www.w3.org/1999/xlink">
<g id="graph0" class="graph" transform="scale(1 1) rotate(0) translate(4 1149.65)">
<title>%3</title>
<polygon fill="white" stroke="none" points="-4,4 -4,-1149.65 1281.11,-1149.65 1281.11,4 -4,4"/>
<!-- http://dbpedia.org/void/Dataset -->
<g id="node1" class="node"><title>http://dbpedia.org/void/Dataset</title>
<ellipse fill="none" stroke="black" cx="626.872" cy="-572.772" rx="123.478" ry="18"/>
<text text-anchor="middle" x="626.872" y="-569.072" font-family="Times New Roman,serif" font-size="14.00">http://dbpedia.org/void/Dataset</text>
</g>
<!-- _:autos1 -->
<g id="node2" class="node"><title>_:autos1</title>
<ellipse fill="none" stroke="black" cx="900.049" cy="-629.664" rx="41.6928" ry="18"/>
<text text-anchor="middle" x="900.049" y="-625.964" font-family="Times New Roman,serif" font-size="14.00">_:autos1</text>
</g>
<!-- http://dbpedia.org/void/Dataset&#45;&gt;_:autos1 -->
<g id="edge1" class="edge"><title>http://dbpedia.org/void/Dataset&#45;&gt;_:autos1</title>
<path fill="none" stroke="black" d="M697.933,-587.571C746.669,-597.721 809.992,-610.909 852.666,-619.796"/>
<polygon fill="black" stroke="black" points="852.01,-623.235 862.514,-621.847 853.437,-616.382 852.01,-623.235"/>
<text text-anchor="middle" x="732.3" y="-607.484" font-family="Times New Roman,serif" font-size="14.00">semstat:hasStat</text>
</g>
<!-- http://dbpedia.org/sparql -->
<g id="node3" class="node"><title>http://dbpedia.org/sparql</title>
<ellipse fill="none" stroke="black" cx="873.655" cy="-709.333" rx="100.983" ry="18"/>
<text text-anchor="middle" x="873.655" y="-705.633" font-family="Times New Roman,serif" font-size="14.00">http://dbpedia.org/sparql</text>
</g>
<!-- http://dbpedia.org/void/Dataset&#45;&gt;http://dbpedia.org/sparql -->
<g id="edge2" class="edge"><title>http://dbpedia.org/void/Dataset&#45;&gt;http://dbpedia.org/sparql</title>
<path fill="none" stroke="black" d="M658.378,-590.206C702.935,-614.863 784.369,-659.925 833.3,-687.002"/>
<polygon fill="black" stroke="black" points="831.893,-690.223 842.337,-692.003 835.282,-684.098 831.893,-690.223"/>
<text text-anchor="middle" x="688.839" y="-642.404" font-family="Times New Roman,serif" font-size="14.00">void:sparqlEndpoint</text>
</g>
<!-- _:autos2 -->
<g id="node6" class="node"><title>_:autos2</title>
<ellipse fill="none" stroke="black" cx="825.007" cy="-775.573" rx="41.6928" ry="18"/>
<text text-anchor="middle" x="825.007" y="-771.873" font-family="Times New Roman,serif" font-size="14.00">_:autos2</text>
</g>
<!-- http://dbpedia.org/void/Dataset&#45;&gt;_:autos2 -->
<g id="edge5" class="edge"><title>http://dbpedia.org/void/Dataset&#45;&gt;_:autos2</title>
<path fill="none" stroke="black" d="M644.455,-590.769C680.208,-627.364 761.393,-710.46 801.578,-751.591"/>
<polygon fill="black" stroke="black" points="799.092,-754.055 808.584,-758.762 804.099,-749.164 799.092,-754.055"/>
<text text-anchor="middle" x="680.016" y="-674.98" font-family="Times New Roman,serif" font-size="14.00">semstat:hasStat</text>
</g>
<!-- _:autos3 -->
<g id="node9" class="node"><title>_:autos3</title>
<ellipse fill="none" stroke="black" cx="722.356" cy="-832.979" rx="41.6928" ry="18"/>
<text text-anchor="middle" x="722.356" y="-829.279" font-family="Times New Roman,serif" font-size="14.00">_:autos3</text>
</g>
<!-- http://dbpedia.org/void/Dataset&#45;&gt;_:autos3 -->
<g id="edge8" class="edge"><title>http://dbpedia.org/void/Dataset&#45;&gt;_:autos3</title>
<path fill="none" stroke="black" d="M633.586,-591.07C650.096,-636.062 692.747,-752.292 712.297,-805.567"/>
<polygon fill="black" stroke="black" points="709.045,-806.865 715.776,-815.048 715.617,-804.454 709.045,-806.865"/>
<text text-anchor="middle" x="715.942" y="-702.118" font-family="Times New Roman,serif" font-size="14.00">semstat:hasStat</text>
</g>
<!-- _:autos4 -->
<g id="node12" class="node"><title>_:autos4</title>
<ellipse fill="none" stroke="black" cx="594.052" cy="-845.265" rx="41.6928" ry="18"/>
<text text-anchor="middle" x="594.052" y="-841.565" font-family="Times New Roman,serif" font-size="14.00">_:autos4</text>
</g>
<!-- http://dbpedia.org/void/Dataset&#45;&gt;_:autos4 -->
<g id="edge11" class="edge"><title>http://dbpedia.org/void/Dataset&#45;&gt;_:autos4</title>
<path fill="none" stroke="black" d="M624.668,-591.074C619.063,-637.612 604.233,-760.738 597.484,-816.772"/>
<polygon fill="black" stroke="black" points="593.968,-816.695 596.247,-827.042 600.918,-817.532 593.968,-816.695"/>
<text text-anchor="middle" x="568.076" y="-707.723" font-family="Times New Roman,serif" font-size="14.00">semstat:hasStat</text>
</g>
<!-- _:autos5 -->
<g id="node15" class="node"><title>_:autos5</title>
<ellipse fill="none" stroke="black" cx="476.857" cy="-809.242" rx="41.6928" ry="18"/>
<text text-anchor="middle" x="476.857" y="-805.542" font-family="Times New Roman,serif" font-size="14.00">_:autos5</text>
</g>
<!-- http://dbpedia.org/void/Dataset&#45;&gt;_:autos5 -->
<g id="edge14" class="edge"><title>http://dbpedia.org/void/Dataset&#45;&gt;_:autos5</title>
<path fill="none" stroke="black" d="M615.35,-590.935C588.987,-632.49 524.195,-734.623 493.5,-783.007"/>
<polygon fill="black" stroke="black" points="490.411,-781.343 488.009,-791.662 496.322,-785.093 490.411,-781.343"/>
<text text-anchor="middle" x="511.425" y="-690.771" font-family="Times New Roman,serif" font-size="14.00">semstat:hasStat</text>
</g>
<!-- _:autos6 -->
<g id="node18" class="node"><title>_:autos6</title>
<ellipse fill="none" stroke="black" cx="394.224" cy="-733.134" rx="41.6928" ry="18"/>
<text text-anchor="middle" x="394.224" y="-729.434" font-family="Times New Roman,serif" font-size="14.00">_:autos6</text>
</g>
<!-- http://dbpedia.org/void/Dataset&#45;&gt;_:autos6 -->
<g id="edge17" class="edge"><title>http://dbpedia.org/void/Dataset&#45;&gt;_:autos6</title>
<path fill="none" stroke="black" d="M601.086,-590.546C557.962,-620.271 471.394,-679.941 425.097,-711.853"/>
<polygon fill="black" stroke="black" points="422.917,-709.105 416.67,-717.662 426.89,-714.868 422.917,-709.105"/>
<text text-anchor="middle" x="470.091" y="-655" font-family="Times New Roman,serif" font-size="14.00">semstat:hasStat</text>
</g>
<!-- _:autos7 -->
<g id="node21" class="node"><title>_:autos7</title>
<ellipse fill="none" stroke="black" cx="353.857" cy="-629.582" rx="41.6928" ry="18"/>
<text text-anchor="middle" x="353.857" y="-625.882" font-family="Times New Roman,serif" font-size="14.00">_:autos7</text>
</g>
<!-- http://dbpedia.org/void/Dataset&#45;&gt;_:autos7 -->
<g id="edge20" class="edge"><title>http://dbpedia.org/void/Dataset&#45;&gt;_:autos7</title>
<path fill="none" stroke="black" d="M555.853,-587.55C507.146,-597.685 443.86,-610.854 401.211,-619.728"/>
<polygon fill="black" stroke="black" points="400.447,-616.312 391.37,-621.776 401.873,-623.165 400.447,-616.312"/>
<text text-anchor="middle" x="435.532" y="-592.439" font-family="Times New Roman,serif" font-size="14.00">semstat:hasStat</text>
</g>
<!-- _:autos8 -->
<g id="node24" class="node"><title>_:autos8</title>
<ellipse fill="none" stroke="black" cx="354.526" cy="-516.084" rx="41.6928" ry="18"/>
<text text-anchor="middle" x="354.526" y="-512.384" font-family="Times New Roman,serif" font-size="14.00">_:autos8</text>
</g>
<!-- http://dbpedia.org/void/Dataset&#45;&gt;_:autos8 -->
<g id="edge23" class="edge"><title>http://dbpedia.org/void/Dataset&#45;&gt;_:autos8</title>
<path fill="none" stroke="black" d="M556.027,-558.026C507.585,-547.943 444.688,-534.851 402.148,-525.996"/>
<polygon fill="black" stroke="black" points="402.831,-522.564 392.327,-523.952 401.404,-529.417 402.831,-522.564"/>
<text text-anchor="middle" x="436.088" y="-545.811" font-family="Times New Roman,serif" font-size="14.00">semstat:hasStat</text>
</g>
<!-- _:autos9 -->
<g id="node27" class="node"><title>_:autos9</title>
<ellipse fill="none" stroke="black" cx="393.66" cy="-412.586" rx="41.6928" ry="18"/>
<text text-anchor="middle" x="393.66" y="-408.886" font-family="Times New Roman,serif" font-size="14.00">_:autos9</text>
</g>
<!-- http://dbpedia.org/void/Dataset&#45;&gt;_:autos9 -->
<g id="edge26" class="edge"><title>http://dbpedia.org/void/Dataset&#45;&gt;_:autos9</title>
<path fill="none" stroke="black" d="M601.023,-555.017C557.795,-525.325 471.017,-465.72 424.608,-433.843"/>
<polygon fill="black" stroke="black" points="426.384,-430.818 416.16,-428.041 422.421,-436.588 426.384,-430.818"/>
<text text-anchor="middle" x="469.815" y="-498.23" font-family="Times New Roman,serif" font-size="14.00">semstat:hasStat</text>
</g>
<!-- _:autos10 -->
<g id="node30" class="node"><title>_:autos10</title>
<ellipse fill="none" stroke="black" cx="470.795" cy="-337.008" rx="46.2923" ry="18"/>
<text text-anchor="middle" x="470.795" y="-333.308" font-family="Times New Roman,serif" font-size="14.00">_:autos10</text>
</g>
<!-- http://dbpedia.org/void/Dataset&#45;&gt;_:autos10 -->
<g id="edge29" class="edge"><title>http://dbpedia.org/void/Dataset&#45;&gt;_:autos10</title>
<path fill="none" stroke="black" d="M614.884,-554.664C587.457,-513.233 520.046,-411.404 488.111,-363.164"/>
<polygon fill="black" stroke="black" points="490.837,-360.941 482.398,-354.535 485,-364.805 490.837,-360.941"/>
<text text-anchor="middle" x="508.497" y="-462.714" font-family="Times New Roman,serif" font-size="14.00">semstat:hasStat</text>
</g>
<!-- _:autos11 -->
<g id="node33" class="node"><title>_:autos11</title>
<ellipse fill="none" stroke="black" cx="625.469" cy="-298.589" rx="46.2923" ry="18"/>
<text text-anchor="middle" x="625.469" y="-294.889" font-family="Times New Roman,serif" font-size="14.00">_:autos11</text>
</g>
<!-- http://dbpedia.org/void/Dataset&#45;&gt;_:autos11 -->
<g id="edge32" class="edge"><title>http://dbpedia.org/void/Dataset&#45;&gt;_:autos11</title>
<path fill="none" stroke="black" d="M626.778,-554.357C626.538,-507.53 625.904,-383.641 625.616,-327.258"/>
<polygon fill="black" stroke="black" points="629.114,-326.907 625.563,-316.925 622.114,-326.943 629.114,-326.907"/>
<text text-anchor="middle" x="583.197" y="-444.607" font-family="Times New Roman,serif" font-size="14.00">semstat:hasStat</text>
</g>
<!-- _:autos12 -->
<g id="node37" class="node"><title>_:autos12</title>
<ellipse fill="none" stroke="black" cx="778.48" cy="-335.859" rx="46.2923" ry="18"/>
<text text-anchor="middle" x="778.48" y="-332.159" font-family="Times New Roman,serif" font-size="14.00">_:autos12</text>
</g>
<!-- http://dbpedia.org/void/Dataset&#45;&gt;_:autos12 -->
<g id="edge36" class="edge"><title>http://dbpedia.org/void/Dataset&#45;&gt;_:autos12</title>
<path fill="none" stroke="black" d="M638.517,-554.575C665.159,-512.943 730.64,-410.618 761.66,-362.143"/>
<polygon fill="black" stroke="black" points="764.767,-363.782 767.209,-353.472 758.871,-360.008 764.767,-363.782"/>
<text text-anchor="middle" x="657.089" y="-462.159" font-family="Times New Roman,serif" font-size="14.00">semstat:hasStat</text>
</g>
<!-- _:autos13 -->
<g id="node40" class="node"><title>_:autos13</title>
<ellipse fill="none" stroke="black" cx="858.37" cy="-412.184" rx="46.2923" ry="18"/>
<text text-anchor="middle" x="858.37" y="-408.484" font-family="Times New Roman,serif" font-size="14.00">_:autos13</text>
</g>
<!-- http://dbpedia.org/void/Dataset&#45;&gt;_:autos13 -->
<g id="edge39" class="edge"><title>http://dbpedia.org/void/Dataset&#45;&gt;_:autos13</title>
<path fill="none" stroke="black" d="M652.531,-554.973C695.331,-525.283 781.138,-465.76 827.293,-433.743"/>
<polygon fill="black" stroke="black" points="829.479,-436.486 835.701,-427.91 825.489,-430.734 829.479,-436.486"/>
<text text-anchor="middle" x="696.912" y="-498.158" font-family="Times New Roman,serif" font-size="14.00">semstat:hasStat</text>
</g>
<!-- _:autos14 -->
<g id="node43" class="node"><title>_:autos14</title>
<ellipse fill="none" stroke="black" cx="899.403" cy="-516.049" rx="46.2923" ry="18"/>
<text text-anchor="middle" x="899.403" y="-512.349" font-family="Times New Roman,serif" font-size="14.00">_:autos14</text>
</g>
<!-- http://dbpedia.org/void/Dataset&#45;&gt;_:autos14 -->
<g id="edge42" class="edge"><title>http://dbpedia.org/void/Dataset&#45;&gt;_:autos14</title>
<path fill="none" stroke="black" d="M697.765,-558.017C745.072,-548.171 806.155,-535.457 848.636,-526.615"/>
<polygon fill="black" stroke="black" points="849.401,-530.031 858.478,-524.567 847.975,-523.178 849.401,-530.031"/>
<text text-anchor="middle" x="730.201" y="-531.116" font-family="Times New Roman,serif" font-size="14.00">semstat:hasStat</text>
</g>
<!-- semstat:OwlSameAs -->
<g id="node4" class="node"><title>semstat:OwlSameAs</title>
<ellipse fill="none" stroke="black" cx="1176.25" cy="-630.086" rx="85.2851" ry="18"/>
<text text-anchor="middle" x="1176.25" y="-626.386" font-family="Times New Roman,serif" font-size="14.00">semstat:OwlSameAs</text>
</g>
<!-- _:autos1&#45;&gt;semstat:OwlSameAs -->
<g id="edge3" class="edge"><title>_:autos1&#45;&gt;semstat:OwlSameAs</title>
<path fill="none" stroke="black" d="M941.697,-629.728C978.488,-629.784 1033.52,-629.868 1081.03,-629.941"/>
<polygon fill="black" stroke="black" points="1081.04,-633.44 1091.05,-629.956 1081.06,-626.441 1081.04,-633.44"/>
<text text-anchor="middle" x="1011.37" y="-618.634" font-family="Times New Roman,serif" font-size="14.00">semstat:hasSemanticFeature</text>
</g>
<!-- &#45;1785391893 -->
<g id="node5" class="node"><title>&#45;1785391893</title>
<polygon fill="none" stroke="black" points="1229.29,-759.727 1086.29,-759.727 1086.29,-723.727 1229.29,-723.727 1229.29,-759.727"/>
<text text-anchor="middle" x="1157.79" y="-738.027" font-family="Times New Roman,serif" font-size="14.00">33624480^^xsd:integer</text>
</g>
<!-- _:autos1&#45;&gt;&#45;1785391893 -->
<g id="edge4" class="edge"><title>_:autos1&#45;&gt;&#45;1785391893</title>
<path fill="none" stroke="black" d="M929.615,-642.519C972.899,-661.339 1054.11,-696.647 1107.05,-719.667"/>
<polygon fill="black" stroke="black" points="1105.7,-722.896 1116.27,-723.674 1108.49,-716.477 1105.7,-722.896"/>
<text text-anchor="middle" x="952.333" y="-669.893" font-family="Times New Roman,serif" font-size="14.00">semstat:definitionCount</text>
</g>
<!-- semstat:OwlDifferentFrom -->
<g id="node7" class="node"><title>semstat:OwlDifferentFrom</title>
<ellipse fill="none" stroke="black" cx="1069.4" cy="-936.586" rx="106.681" ry="18"/>
<text text-anchor="middle" x="1069.4" y="-932.886" font-family="Times New Roman,serif" font-size="14.00">semstat:OwlDifferentFrom</text>
</g>
<!-- _:autos2&#45;&gt;semstat:OwlDifferentFrom -->
<g id="edge6" class="edge"><title>_:autos2&#45;&gt;semstat:OwlDifferentFrom</title>
<path fill="none" stroke="black" d="M847.999,-790.721C890.908,-818.99 983.423,-879.942 1034.23,-913.413"/>
<polygon fill="black" stroke="black" points="1032.33,-916.355 1042.61,-918.934 1036.18,-910.51 1032.33,-916.355"/>
<text text-anchor="middle" x="862.613" y="-855.867" font-family="Times New Roman,serif" font-size="14.00">semstat:hasSemanticFeature</text>
</g>
<!-- &#45;669644119 -->
<g id="node8" class="node"><title>&#45;669644119</title>
<polygon fill="none" stroke="black" points="1061.49,-1030.17 939.494,-1030.17 939.494,-994.171 1061.49,-994.171 1061.49,-1030.17"/>
<text text-anchor="middle" x="1000.49" y="-1008.47" font-family="Times New Roman,serif" font-size="14.00">57623^^xsd:integer</text>
</g>
<!-- _:autos2&#45;&gt;&#45;669644119 -->
<g id="edge7" class="edge"><title>_:autos2&#45;&gt;&#45;669644119</title>
<path fill="none" stroke="black" d="M837.911,-792.97C868.377,-834.045 944.916,-937.238 981.041,-985.943"/>
<polygon fill="black" stroke="black" points="978.324,-988.155 987.093,-994.102 983.946,-983.985 978.324,-988.155"/>
<text text-anchor="middle" x="843.476" y="-893.257" font-family="Times New Roman,serif" font-size="14.00">semstat:definitionCount</text>
</g>
<!-- semstat:OwlDisjointWith -->
<g id="node10" class="node"><title>semstat:OwlDisjointWith</title>
<ellipse fill="none" stroke="black" cx="912.918" cy="-1067.89" rx="100.983" ry="18"/>
<text text-anchor="middle" x="912.918" y="-1064.19" font-family="Times New Roman,serif" font-size="14.00">semstat:OwlDisjointWith</text>
</g>
<!-- _:autos3&#45;&gt;semstat:OwlDisjointWith -->
<g id="edge9" class="edge"><title>_:autos3&#45;&gt;semstat:OwlDisjointWith</title>
<path fill="none" stroke="black" d="M736.368,-850.252C769.519,-891.118 852.909,-993.913 892.037,-1042.15"/>
<polygon fill="black" stroke="black" points="889.347,-1044.39 898.365,-1049.95 894.783,-1039.98 889.347,-1044.39"/>
<text text-anchor="middle" x="735.703" y="-949.999" font-family="Times New Roman,serif" font-size="14.00">semstat:hasSemanticFeature</text>
</g>
<!-- 1965103522 -->
<g id="node11" class="node"><title>1965103522</title>
<polygon fill="none" stroke="black" points="832.302,-1129.89 723.302,-1129.89 723.302,-1093.89 832.302,-1093.89 832.302,-1129.89"/>
<text text-anchor="middle" x="777.802" y="-1108.19" font-family="Times New Roman,serif" font-size="14.00">173^^xsd:integer</text>
</g>
<!-- _:autos3&#45;&gt;1965103522 -->
<g id="edge10" class="edge"><title>_:autos3&#45;&gt;1965103522</title>
<path fill="none" stroke="black" d="M725.994,-851.279C735.455,-898.87 760.879,-1026.76 772.215,-1083.78"/>
<polygon fill="black" stroke="black" points="768.84,-1084.76 774.223,-1093.88 775.706,-1083.39 768.84,-1084.76"/>
<text text-anchor="middle" x="683.104" y="-971.33" font-family="Times New Roman,serif" font-size="14.00">semstat:definitionCount</text>
</g>
<!-- semstat:RdfsDomain -->
<g id="node13" class="node"><title>semstat:RdfsDomain</title>
<ellipse fill="none" stroke="black" cx="628.787" cy="-1127.65" rx="86.3847" ry="18"/>
<text text-anchor="middle" x="628.787" y="-1123.95" font-family="Times New Roman,serif" font-size="14.00">semstat:RdfsDomain</text>
</g>
<!-- _:autos4&#45;&gt;semstat:RdfsDomain -->
<g id="edge12" class="edge"><title>_:autos4&#45;&gt;semstat:RdfsDomain</title>
<path fill="none" stroke="black" d="M596.278,-863.358C602.158,-911.16 618.142,-1041.1 625.272,-1099.07"/>
<polygon fill="black" stroke="black" points="621.84,-1099.84 626.535,-1109.34 628.788,-1098.98 621.84,-1099.84"/>
<text text-anchor="middle" x="532.275" y="-985.013" font-family="Times New Roman,serif" font-size="14.00">semstat:hasSemanticFeature</text>
</g>
<!-- &#45;1971549875 -->
<g id="node14" class="node"><title>&#45;1971549875</title>
<polygon fill="none" stroke="black" points="534.304,-1129.54 418.304,-1129.54 418.304,-1093.54 534.304,-1093.54 534.304,-1129.54"/>
<text text-anchor="middle" x="476.304" y="-1107.84" font-family="Times New Roman,serif" font-size="14.00">5884^^xsd:integer</text>
</g>
<!-- _:autos4&#45;&gt;&#45;1971549875 -->
<g id="edge13" class="edge"><title>_:autos4&#45;&gt;&#45;1971549875</title>
<path fill="none" stroke="black" d="M586.144,-863.149C565.999,-908.705 512.643,-1029.36 488.489,-1083.98"/>
<polygon fill="black" stroke="black" points="485.177,-1082.82 484.334,-1093.38 491.579,-1085.65 485.177,-1082.82"/>
<text text-anchor="middle" x="471.317" y="-962.367" font-family="Times New Roman,serif" font-size="14.00">semstat:definitionCount</text>
</g>
<!-- semstat:OwlEquivalentClass -->
<g id="node16" class="node"><title>semstat:OwlEquivalentClass</title>
<ellipse fill="none" stroke="black" cx="341.145" cy="-1067.5" rx="112.38" ry="18"/>
<text text-anchor="middle" x="341.145" y="-1063.8" font-family="Times New Roman,serif" font-size="14.00">semstat:OwlEquivalentClass</text>
</g>
<!-- _:autos5&#45;&gt;semstat:OwlEquivalentClass -->
<g id="edge15" class="edge"><title>_:autos5&#45;&gt;semstat:OwlEquivalentClass</title>
<path fill="none" stroke="black" d="M467.529,-826.993C444.245,-871.302 383.444,-987.008 355.532,-1040.13"/>
<polygon fill="black" stroke="black" points="352.273,-1038.8 350.719,-1049.28 358.469,-1042.06 352.273,-1038.8"/>
<text text-anchor="middle" x="490.03" y="-937.359" font-family="Times New Roman,serif" font-size="14.00">semstat:hasSemanticFeature</text>
</g>
<!-- &#45;1041797222 -->
<g id="node17" class="node"><title>&#45;1041797222</title>
<polygon fill="none" stroke="black" points="327.163,-1030.97 198.163,-1030.97 198.163,-994.971 327.163,-994.971 327.163,-1030.97"/>
<text text-anchor="middle" x="262.663" y="-1009.27" font-family="Times New Roman,serif" font-size="14.00">570058^^xsd:integer</text>
</g>
<!-- _:autos5&#45;&gt;&#45;1041797222 -->
<g id="edge16" class="edge"><title>_:autos5&#45;&gt;&#45;1041797222</title>
<path fill="none" stroke="black" d="M459.328,-825.914C421.815,-861.594 333.563,-945.535 289.16,-987.768"/>
<polygon fill="black" stroke="black" points="286.49,-985.477 281.656,-994.905 291.315,-990.549 286.49,-985.477"/>
<text text-anchor="middle" x="308.244" y="-895.641" font-family="Times New Roman,serif" font-size="14.00">semstat:definitionCount</text>
</g>
<!-- semstat:OwlEquivalentProperty -->
<g id="node19" class="node"><title>semstat:OwlEquivalentProperty</title>
<ellipse fill="none" stroke="black" cx="194.413" cy="-937.524" rx="124.278" ry="18"/>
<text text-anchor="middle" x="194.413" y="-933.824" font-family="Times New Roman,serif" font-size="14.00">semstat:OwlEquivalentProperty</text>
</g>
<!-- _:autos6&#45;&gt;semstat:OwlEquivalentProperty -->
<g id="edge18" class="edge"><title>_:autos6&#45;&gt;semstat:OwlEquivalentProperty</title>
<path fill="none" stroke="black" d="M377.872,-749.86C342.863,-785.672 260.48,-869.943 219.076,-912.296"/>
<polygon fill="black" stroke="black" points="216.33,-910.097 211.843,-919.695 221.336,-914.991 216.33,-910.097"/>
<text text-anchor="middle" x="376.974" y="-834.878" font-family="Times New Roman,serif" font-size="14.00">semstat:hasSemanticFeature</text>
</g>
<!-- &#45;1268098392 -->
<g id="node20" class="node"><title>&#45;1268098392</title>
<polygon fill="none" stroke="black" points="192.312,-863.854 83.312,-863.854 83.312,-827.854 192.312,-827.854 192.312,-863.854"/>
<text text-anchor="middle" x="137.812" y="-842.154" font-family="Times New Roman,serif" font-size="14.00">728^^xsd:integer</text>
</g>
<!-- _:autos6&#45;&gt;&#45;1268098392 -->
<g id="edge19" class="edge"><title>_:autos6&#45;&gt;&#45;1268098392</title>
<path fill="none" stroke="black" d="M364.81,-746.064C321.749,-764.994 240.961,-800.509 188.289,-823.664"/>
<polygon fill="black" stroke="black" points="186.866,-820.466 179.12,-827.694 189.683,-826.874 186.866,-820.466"/>
<text text-anchor="middle" x="210.55" y="-788.664" font-family="Times New Roman,serif" font-size="14.00">semstat:definitionCount</text>
</g>
<!-- semstat:OwlInverseOf -->
<g id="node22" class="node"><title>semstat:OwlInverseOf</title>
<ellipse fill="none" stroke="black" cx="100.756" cy="-742.075" rx="90.9839" ry="18"/>
<text text-anchor="middle" x="100.756" y="-738.375" font-family="Times New Roman,serif" font-size="14.00">semstat:OwlInverseOf</text>
</g>
<!-- _:autos7&#45;&gt;semstat:OwlInverseOf -->
<g id="edge21" class="edge"><title>_:autos7&#45;&gt;semstat:OwlInverseOf</title>
<path fill="none" stroke="black" d="M324.823,-642.486C281.428,-661.773 199.218,-698.313 147.353,-721.365"/>
<polygon fill="black" stroke="black" points="145.754,-718.245 138.038,-725.505 148.597,-724.641 145.754,-718.245"/>
<text text-anchor="middle" x="157.588" y="-685.725" font-family="Times New Roman,serif" font-size="14.00">semstat:hasSemanticFeature</text>
</g>
<!-- &#45;211153400 -->
<g id="node23" class="node"><title>&#45;211153400</title>
<polygon fill="none" stroke="black" points="128.743,-648.388 33.7431,-648.388 33.7431,-612.388 128.743,-612.388 128.743,-648.388"/>
<text text-anchor="middle" x="81.2431" y="-626.688" font-family="Times New Roman,serif" font-size="14.00">5^^xsd:integer</text>
</g>
<!-- _:autos7&#45;&gt;&#45;211153400 -->
<g id="edge22" class="edge"><title>_:autos7&#45;&gt;&#45;211153400</title>
<path fill="none" stroke="black" d="M312.156,-629.705C265.871,-629.842 190.869,-630.064 138.962,-630.217"/>
<polygon fill="black" stroke="black" points="138.893,-626.717 128.904,-630.247 138.914,-633.717 138.893,-626.717"/>
<text text-anchor="middle" x="225.559" y="-618.761" font-family="Times New Roman,serif" font-size="14.00">semstat:definitionCount</text>
</g>
<!-- semstat:RdfsRange -->
<g id="node25" class="node"><title>semstat:RdfsRange</title>
<ellipse fill="none" stroke="black" cx="81.2428" cy="-515.609" rx="81.4863" ry="18"/>
<text text-anchor="middle" x="81.2428" y="-511.909" font-family="Times New Roman,serif" font-size="14.00">semstat:RdfsRange</text>
</g>
<!-- _:autos8&#45;&gt;semstat:RdfsRange -->
<g id="edge24" class="edge"><title>_:autos8&#45;&gt;semstat:RdfsRange</title>
<path fill="none" stroke="black" d="M312.723,-516.011C275.669,-515.947 220.255,-515.85 172.935,-515.768"/>
<polygon fill="black" stroke="black" points="172.666,-512.268 162.66,-515.75 172.654,-519.268 172.666,-512.268"/>
<text text-anchor="middle" x="242.829" y="-504.69" font-family="Times New Roman,serif" font-size="14.00">semstat:hasSemanticFeature</text>
</g>
<!-- 1959975453 -->
<g id="node26" class="node"><title>1959975453</title>
<polygon fill="none" stroke="black" points="158.086,-421.956 42.0864,-421.956 42.0864,-385.956 158.086,-385.956 158.086,-421.956"/>
<text text-anchor="middle" x="100.086" y="-400.256" font-family="Times New Roman,serif" font-size="14.00">6053^^xsd:integer</text>
</g>
<!-- _:autos8&#45;&gt;1959975453 -->
<g id="edge25" class="edge"><title>_:autos8&#45;&gt;1959975453</title>
<path fill="none" stroke="black" d="M325.338,-503.221C282.697,-484.43 202.774,-449.209 150.501,-426.172"/>
<polygon fill="black" stroke="black" points="151.639,-422.849 141.077,-422.02 148.816,-429.255 151.639,-422.849"/>
<text text-anchor="middle" x="171.919" y="-468.497" font-family="Times New Roman,serif" font-size="14.00">semstat:definitionCount</text>
</g>
<!-- semstat:RdfsSubClassOf -->
<g id="node28" class="node"><title>semstat:RdfsSubClassOf</title>
<ellipse fill="none" stroke="black" cx="133" cy="-300.438" rx="102.882" ry="18"/>
<text text-anchor="middle" x="133" y="-296.738" font-family="Times New Roman,serif" font-size="14.00">semstat:RdfsSubClassOf</text>
</g>
<!-- _:autos9&#45;&gt;semstat:RdfsSubClassOf -->
<g id="edge27" class="edge"><title>_:autos9&#45;&gt;semstat:RdfsSubClassOf</title>
<path fill="none" stroke="black" d="M364.012,-399.83C319.452,-380.658 234.742,-344.212 181.215,-321.182"/>
<polygon fill="black" stroke="black" points="182.495,-317.923 171.926,-317.185 179.728,-324.353 182.495,-317.923"/>
<text text-anchor="middle" x="194.114" y="-364.306" font-family="Times New Roman,serif" font-size="14.00">semstat:hasSemanticFeature</text>
</g>
<!-- &#45;306983162 -->
<g id="node29" class="node"><title>&#45;306983162</title>
<polygon fill="none" stroke="black" points="254.661,-227.304 118.661,-227.304 118.661,-191.304 254.661,-191.304 254.661,-227.304"/>
<text text-anchor="middle" x="186.661" y="-205.604" font-family="Times New Roman,serif" font-size="14.00">1191946^^xsd:integer</text>
</g>
<!-- _:autos9&#45;&gt;&#45;306983162 -->
<g id="edge28" class="edge"><title>_:autos9&#45;&gt;&#45;306983162</title>
<path fill="none" stroke="black" d="M376.72,-395.951C340.467,-360.348 255.179,-276.592 212.268,-234.451"/>
<polygon fill="black" stroke="black" points="214.604,-231.84 205.016,-227.33 209.699,-236.834 214.604,-231.84"/>
<text text-anchor="middle" x="360.494" y="-304.001" font-family="Times New Roman,serif" font-size="14.00">semstat:definitionCount</text>
</g>
<!-- semstat:RdfType -->
<g id="node31" class="node"><title>semstat:RdfType</title>
<ellipse fill="none" stroke="black" cx="249.351" cy="-135.169" rx="73.387" ry="18"/>
<text text-anchor="middle" x="249.351" y="-131.469" font-family="Times New Roman,serif" font-size="14.00">semstat:RdfType</text>
</g>
<!-- _:autos10&#45;&gt;semstat:RdfType -->
<g id="edge30" class="edge"><title>_:autos10&#45;&gt;semstat:RdfType</title>
<path fill="none" stroke="black" d="M452.296,-320.146C413.089,-284.41 321.51,-200.939 276,-159.458"/>
<polygon fill="black" stroke="black" points="278.332,-156.848 268.583,-152.698 273.616,-162.021 278.332,-156.848"/>
<text text-anchor="middle" x="285.648" y="-243.602" font-family="Times New Roman,serif" font-size="14.00">semstat:hasSemanticFeature</text>
</g>
<!-- 2091159306 -->
<g id="node32" class="node"><title>2091159306</title>
<polygon fill="none" stroke="black" points="398.63,-99.801 249.63,-99.801 249.63,-63.801 398.63,-63.801 398.63,-99.801"/>
<text text-anchor="middle" x="324.13" y="-78.101" font-family="Times New Roman,serif" font-size="14.00">286405044^^xsd:integer</text>
</g>
<!-- _:autos10&#45;&gt;2091159306 -->
<g id="edge31" class="edge"><title>_:autos10&#45;&gt;2091159306</title>
<path fill="none" stroke="black" d="M460.482,-319.062C435.14,-274.965 369.7,-161.096 339.643,-108.795"/>
<polygon fill="black" stroke="black" points="342.645,-106.995 334.628,-100.068 336.576,-110.483 342.645,-106.995"/>
<text text-anchor="middle" x="334.063" y="-217.728" font-family="Times New Roman,serif" font-size="14.00">semstat:definitionCount</text>
</g>
<!-- semstat:OwlFunctionalProperty -->
<g id="node34" class="node"><title>semstat:OwlFunctionalProperty</title>
<ellipse fill="none" stroke="black" cx="459.196" cy="-37.7743" rx="124.578" ry="18"/>
<text text-anchor="middle" x="459.196" y="-34.0743" font-family="Times New Roman,serif" font-size="14.00">semstat:OwlFunctionalProperty</text>
</g>
<!-- _:autos11&#45;&gt;semstat:OwlFunctionalProperty -->
<g id="edge33" class="edge"><title>_:autos11&#45;&gt;semstat:OwlFunctionalProperty</title>
<path fill="none" stroke="black" d="M614.301,-281.071C585.805,-236.372 510.249,-117.856 476.226,-64.4871"/>
<polygon fill="black" stroke="black" points="479.082,-62.4564 470.755,-55.9057 473.179,-66.2194 479.082,-62.4564"/>
<text text-anchor="middle" x="466.764" y="-176.579" font-family="Times New Roman,serif" font-size="14.00">semstat:hasSemanticFeature</text>
</g>
<!-- &#45;1727120571 -->
<g id="node35" class="node"><title>&#45;1727120571</title>
<polygon fill="none" stroke="black" points="701.101,-36 592.101,-36 592.101,-0 701.101,-0 701.101,-36"/>
<text text-anchor="middle" x="646.601" y="-14.3" font-family="Times New Roman,serif" font-size="14.00">160^^xsd:integer</text>
</g>
<!-- _:autos11&#45;&gt;&#45;1727120571 -->
<g id="edge34" class="edge"><title>_:autos11&#45;&gt;&#45;1727120571</title>
<path fill="none" stroke="black" d="M626.856,-280.179C630.461,-232.302 640.151,-103.639 644.471,-46.2752"/>
<polygon fill="black" stroke="black" points="647.975,-46.3479 645.236,-36.1133 640.995,-45.8221 647.975,-46.3479"/>
<text text-anchor="middle" x="569.663" y="-152.027" font-family="Times New Roman,serif" font-size="14.00">semstat:definitionCount</text>
</g>
<!-- &#45;1339203192 -->
<g id="node36" class="node"><title>&#45;1339203192</title>
<polygon fill="none" stroke="black" points="845.177,-49.7975 709.177,-49.7975 709.177,-13.7975 845.177,-13.7975 845.177,-49.7975"/>
<text text-anchor="middle" x="777.177" y="-28.0975" font-family="Times New Roman,serif" font-size="14.00">3461431^^xsd:integer</text>
</g>
<!-- _:autos11&#45;&gt;&#45;1339203192 -->
<g id="edge35" class="edge"><title>_:autos11&#45;&gt;&#45;1339203192</title>
<path fill="none" stroke="black" d="M635.659,-280.67C661.722,-234.836 730.929,-113.129 761.863,-58.7279"/>
<polygon fill="black" stroke="black" points="764.931,-60.413 766.832,-49.99 758.846,-56.9528 764.931,-60.413"/>
<text text-anchor="middle" x="642.761" y="-173.499" font-family="Times New Roman,serif" font-size="14.00">semstat:usageCount</text>
</g>
<!-- semstat:OwlInverseFunctionalProperty -->
<g id="node38" class="node"><title>semstat:OwlInverseFunctionalProperty</title>
<ellipse fill="none" stroke="black" cx="912.156" cy="-75.8434" rx="151.373" ry="18"/>
<text text-anchor="middle" x="912.156" y="-72.1434" font-family="Times New Roman,serif" font-size="14.00">semstat:OwlInverseFunctionalProperty</text>
</g>
<!-- _:autos12&#45;&gt;semstat:OwlInverseFunctionalProperty -->
<g id="edge37" class="edge"><title>_:autos12&#45;&gt;semstat:OwlInverseFunctionalProperty</title>
<path fill="none" stroke="black" d="M787.668,-317.987C810.658,-273.27 870.782,-156.322 898.184,-103.021"/>
<polygon fill="black" stroke="black" points="901.444,-104.334 902.904,-93.8405 895.219,-101.134 901.444,-104.334"/>
<text text-anchor="middle" x="764.426" y="-214.304" font-family="Times New Roman,serif" font-size="14.00">semstat:hasSemanticFeature</text>
</g>
<!-- 834946138 -->
<g id="node39" class="node"><title>834946138</title>
<polygon fill="none" stroke="black" points="1042.28,-149.601 947.277,-149.601 947.277,-113.601 1042.28,-113.601 1042.28,-149.601"/>
<text text-anchor="middle" x="994.777" y="-127.901" font-family="Times New Roman,serif" font-size="14.00">3^^xsd:integer</text>
</g>
<!-- _:autos12&#45;&gt;834946138 -->
<g id="edge38" class="edge"><title>_:autos12&#45;&gt;834946138</title>
<path fill="none" stroke="black" d="M796.181,-319.144C834.141,-283.297 923.55,-198.864 968.298,-156.607"/>
<polygon fill="black" stroke="black" points="970.729,-159.124 975.597,-149.714 965.923,-154.035 970.729,-159.124"/>
<text text-anchor="middle" x="816.239" y="-241.675" font-family="Times New Roman,serif" font-size="14.00">semstat:definitionCount</text>
</g>
<!-- semstat:OwlSymmetricProperty -->
<g id="node41" class="node"><title>semstat:OwlSymmetricProperty</title>
<ellipse fill="none" stroke="black" cx="1059.59" cy="-207.863" rx="126.178" ry="18"/>
<text text-anchor="middle" x="1059.59" y="-204.163" font-family="Times New Roman,serif" font-size="14.00">semstat:OwlSymmetricProperty</text>
</g>
<!-- _:autos13&#45;&gt;semstat:OwlSymmetricProperty -->
<g id="edge40" class="edge"><title>_:autos13&#45;&gt;semstat:OwlSymmetricProperty</title>
<path fill="none" stroke="black" d="M875.18,-395.116C910.644,-359.105 993.262,-275.214 1034.81,-233.029"/>
<polygon fill="black" stroke="black" points="1037.3,-235.482 1041.83,-225.902 1032.32,-230.571 1037.3,-235.482"/>
<text text-anchor="middle" x="876.493" y="-302.873" font-family="Times New Roman,serif" font-size="14.00">semstat:hasSemanticFeature</text>
</g>
<!-- &#45;1776259997 -->
<g id="node42" class="node"><title>&#45;1776259997</title>
<polygon fill="none" stroke="black" points="1166.83,-318.153 1064.83,-318.153 1064.83,-282.153 1166.83,-282.153 1166.83,-318.153"/>
<text text-anchor="middle" x="1115.83" y="-296.453" font-family="Times New Roman,serif" font-size="14.00">38^^xsd:integer</text>
</g>
<!-- _:autos13&#45;&gt;&#45;1776259997 -->
<g id="edge41" class="edge"><title>_:autos13&#45;&gt;&#45;1776259997</title>
<path fill="none" stroke="black" d="M889.426,-398.671C932.99,-379.715 1012.76,-345.005 1065.03,-322.258"/>
<polygon fill="black" stroke="black" points="1066.69,-325.355 1074.46,-318.156 1063.89,-318.937 1066.69,-325.355"/>
<text text-anchor="middle" x="911.229" y="-364.264" font-family="Times New Roman,serif" font-size="14.00">semstat:definitionCount</text>
</g>
<!-- semstat:OwlTransitiveProperty -->
<g id="node44" class="node"><title>semstat:OwlTransitiveProperty</title>
<ellipse fill="none" stroke="black" cx="1154.92" cy="-403.931" rx="122.379" ry="18"/>
<text text-anchor="middle" x="1154.92" y="-400.231" font-family="Times New Roman,serif" font-size="14.00">semstat:OwlTransitiveProperty</text>
</g>
<!-- _:autos14&#45;&gt;semstat:OwlTransitiveProperty -->
<g id="edge43" class="edge"><title>_:autos14&#45;&gt;semstat:OwlTransitiveProperty</title>
<path fill="none" stroke="black" d="M930.225,-502.525C973.959,-483.335 1054.46,-448.012 1106.29,-425.268"/>
<polygon fill="black" stroke="black" points="1107.87,-428.397 1115.62,-421.174 1105.06,-421.987 1107.87,-428.397"/>
<text text-anchor="middle" x="939.759" y="-467.696" font-family="Times New Roman,serif" font-size="14.00">semstat:hasSemanticFeature</text>
</g>
<!-- 1558806675 -->
<g id="node45" class="node"><title>1558806675</title>
<polygon fill="none" stroke="black" points="1224.99,-533.605 1122.99,-533.605 1122.99,-497.605 1224.99,-497.605 1224.99,-533.605"/>
<text text-anchor="middle" x="1173.99" y="-511.905" font-family="Times New Roman,serif" font-size="14.00">51^^xsd:integer</text>
</g>
<!-- _:autos14&#45;&gt;1558806675 -->
<g id="edge44" class="edge"><title>_:autos14&#45;&gt;1558806675</title>
<path fill="none" stroke="black" d="M945.672,-515.974C991.572,-515.9 1062.18,-515.786 1112.71,-515.704"/>
<polygon fill="black" stroke="black" points="1112.86,-519.204 1122.86,-515.688 1112.85,-512.204 1112.86,-519.204"/>
<text text-anchor="middle" x="1029.19" y="-504.639" font-family="Times New Roman,serif" font-size="14.00">semstat:definitionCount</text>
</g>
</g>
</svg>
