<?xml version="1.0" encoding="UTF-8" standalone="no"?>
<!DOCTYPE svg PUBLIC "-//W3C//DTD SVG 1.1//EN"
 "http://www.w3.org/Graphics/SVG/1.1/DTD/svg11.dtd">
<!-- Generated by graphviz version 2.38.0 (20140413.2041)
 -->
<!-- Title: %3 Pages: 1 -->
<svg width="1405pt" height="1184pt"
 viewBox="0.00 0.00 1404.64 1184.20" xmlns="http://www.w3.org/2000/svg" xmlns:xlink="http://www.w3.org/1999/xlink">
<g id="graph0" class="graph" transform="scale(1 1) rotate(0) translate(759.651 592.968)">
<title>%3</title>
<polygon fill="white" stroke="none" points="-759.651,591.233 -759.651,-592.968 644.987,-592.968 644.987,591.233 -759.651,591.233"/>
<!-- http://dbpedia.org/void/Dataset -->
<g id="node1" class="node"><title>http://dbpedia.org/void/Dataset</title>
<ellipse fill="none" stroke="black" cx="1.14583" cy="7.65884" rx="123.478" ry="18"/>
<text text-anchor="middle" x="1.14583" y="11.3588" font-family="Times New Roman,serif" font-size="14.00">http://dbpedia.org/void/Dataset</text>
</g>
<!-- _:autos1 -->
<g id="node2" class="node"><title>_:autos1</title>
<ellipse fill="none" stroke="black" cx="42.9113" cy="-258.274" rx="41.6928" ry="18"/>
<text text-anchor="middle" x="42.9113" y="-254.574" font-family="Times New Roman,serif" font-size="14.00">_:autos1</text>
</g>
<!-- http://dbpedia.org/void/Dataset&#45;&gt;_:autos1 -->
<g id="edge1" class="edge"><title>http://dbpedia.org/void/Dataset&#45;&gt;_:autos1</title>
<path fill="none" stroke="black" d="M4.01654,-10.6198C11.1868,-56.2752 29.9189,-175.547 38.501,-230.193"/>
<polygon fill="black" stroke="black" points="35.0665,-230.883 40.0757,-240.219 41.9817,-229.797 35.0665,-230.883"/>
<text text-anchor="middle" x="64.2588" y="-124.206" font-family="Times New Roman,serif" font-size="14.00">semstat:hasStat</text>
</g>
<!-- http://dbpedia.org/sparql -->
<g id="node3" class="node"><title>http://dbpedia.org/sparql</title>
<ellipse fill="none" stroke="black" cx="22.8935" cy="-95.527" rx="100.983" ry="18"/>
<text text-anchor="middle" x="22.8935" y="-91.827" font-family="Times New Roman,serif" font-size="14.00">http://dbpedia.org/sparql</text>
</g>
<!-- http://dbpedia.org/void/Dataset&#45;&gt;http://dbpedia.org/sparql -->
<g id="edge2" class="edge"><title>http://dbpedia.org/void/Dataset&#45;&gt;http://dbpedia.org/sparql</title>
<path fill="none" stroke="black" d="M5.03388,-10.7887C8.34293,-26.4891 13.1488,-49.2913 16.9418,-67.2882"/>
<polygon fill="black" stroke="black" points="13.552,-68.176 19.0391,-77.2392 20.4015,-66.7323 13.552,-68.176"/>
<text text-anchor="middle" x="-46.0122" y="-42.8384" font-family="Times New Roman,serif" font-size="14.00">void:sparqlEndpoint</text>
</g>
<!-- _:autos2 -->
<g id="node6" class="node"><title>_:autos2</title>
<ellipse fill="none" stroke="black" cx="182.711" cy="124.766" rx="41.6928" ry="18"/>
<text text-anchor="middle" x="182.711" y="128.466" font-family="Times New Roman,serif" font-size="14.00">_:autos2</text>
</g>
<!-- http://dbpedia.org/void/Dataset&#45;&gt;_:autos2 -->
<g id="edge5" class="edge"><title>http://dbpedia.org/void/Dataset&#45;&gt;_:autos2</title>
<path fill="none" stroke="black" d="M28.7217,25.4449C61.5054,46.5901 116.121,81.8165 150.728,104.138"/>
<polygon fill="black" stroke="black" points="152.99,101.432 159.497,109.793 149.196,107.314 152.99,101.432"/>
<text text-anchor="middle" x="46.7249" y="60.9913" font-family="Times New Roman,serif" font-size="14.00">semstat:hasStat</text>
</g>
<!-- _:autos3 -->
<g id="node9" class="node"><title>_:autos3</title>
<ellipse fill="none" stroke="black" cx="-137.348" cy="227.197" rx="41.6928" ry="18"/>
<text text-anchor="middle" x="-137.348" y="230.897" font-family="Times New Roman,serif" font-size="14.00">_:autos3</text>
</g>
<!-- http://dbpedia.org/void/Dataset&#45;&gt;_:autos3 -->
<g id="edge8" class="edge"><title>http://dbpedia.org/void/Dataset&#45;&gt;_:autos3</title>
<path fill="none" stroke="black" d="M-10.1877,25.6246C-34.6048,64.3302 -92.2678,155.737 -120.786,200.943"/>
<polygon fill="black" stroke="black" points="-117.949,203.006 -126.245,209.597 -123.87,199.271 -117.949,203.006"/>
<text text-anchor="middle" x="-108.487" y="109.484" font-family="Times New Roman,serif" font-size="14.00">semstat:hasStat</text>
</g>
<!-- _:autos4 -->
<g id="node12" class="node"><title>_:autos4</title>
<ellipse fill="none" stroke="black" cx="-227.361" cy="131.566" rx="41.6928" ry="18"/>
<text text-anchor="middle" x="-227.361" y="135.266" font-family="Times New Roman,serif" font-size="14.00">_:autos4</text>
</g>
<!-- http://dbpedia.org/void/Dataset&#45;&gt;_:autos4 -->
<g id="edge11" class="edge"><title>http://dbpedia.org/void/Dataset&#45;&gt;_:autos4</title>
<path fill="none" stroke="black" d="M-31.1089,25.1489C-73.7197,48.2544 -148.492,88.7991 -192.411,112.614"/>
<polygon fill="black" stroke="black" points="-190.832,115.74 -201.292,117.43 -194.169,109.586 -190.832,115.74"/>
<text text-anchor="middle" x="-154.76" y="65.0815" font-family="Times New Roman,serif" font-size="14.00">semstat:hasStat</text>
</g>
<!-- _:autos5 -->
<g id="node15" class="node"><title>_:autos5</title>
<ellipse fill="none" stroke="black" cx="-238.601" cy="21.9035" rx="41.6928" ry="18"/>
<text text-anchor="middle" x="-238.601" y="25.6035" font-family="Times New Roman,serif" font-size="14.00">_:autos5</text>
</g>
<!-- http://dbpedia.org/void/Dataset&#45;&gt;_:autos5 -->
<g id="edge14" class="edge"><title>http://dbpedia.org/void/Dataset&#45;&gt;_:autos5</title>
<path fill="none" stroke="black" d="M-113.461,14.4683C-139.223,15.9989 -165.309,17.5489 -186.95,18.8346"/>
<polygon fill="black" stroke="black" points="-187.005,22.344 -197.195,19.4433 -187.42,15.3563 -187.005,22.344"/>
<text text-anchor="middle" x="-150.205" y="27.8514" font-family="Times New Roman,serif" font-size="14.00">semstat:hasStat</text>
</g>
<!-- _:autos6 -->
<g id="node18" class="node"><title>_:autos6</title>
<ellipse fill="none" stroke="black" cx="-181.716" cy="-144.542" rx="41.6928" ry="18"/>
<text text-anchor="middle" x="-181.716" y="-140.842" font-family="Times New Roman,serif" font-size="14.00">_:autos6</text>
</g>
<!-- http://dbpedia.org/void/Dataset&#45;&gt;_:autos6 -->
<g id="edge17" class="edge"><title>http://dbpedia.org/void/Dataset&#45;&gt;_:autos6</title>
<path fill="none" stroke="black" d="M-20.1886,-10.0984C-53.5598,-37.8741 -118.066,-91.5646 -154.656,-122.019"/>
<polygon fill="black" stroke="black" points="-157.007,-119.422 -162.454,-128.509 -152.529,-124.802 -157.007,-119.422"/>
<text text-anchor="middle" x="-130.422" y="-69.8589" font-family="Times New Roman,serif" font-size="14.00">semstat:hasStat</text>
</g>
<!-- _:autos7 -->
<g id="node21" class="node"><title>_:autos7</title>
<ellipse fill="none" stroke="black" cx="265.377" cy="-13.2365" rx="41.6928" ry="18"/>
<text text-anchor="middle" x="265.377" y="-9.53647" font-family="Times New Roman,serif" font-size="14.00">_:autos7</text>
</g>
<!-- http://dbpedia.org/void/Dataset&#45;&gt;_:autos7 -->
<g id="edge20" class="edge"><title>http://dbpedia.org/void/Dataset&#45;&gt;_:autos7</title>
<path fill="none" stroke="black" d="M109.763,-0.930536C145.924,-3.79016 184.512,-6.84169 214.216,-9.19065"/>
<polygon fill="black" stroke="black" points="214.089,-12.6914 224.334,-9.99074 214.641,-5.71321 214.089,-12.6914"/>
<text text-anchor="middle" x="183.489" y="6.13941" font-family="Times New Roman,serif" font-size="14.00">semstat:hasStat</text>
</g>
<!-- _:autos8 -->
<g id="node24" class="node"><title>_:autos8</title>
<ellipse fill="none" stroke="black" cx="246.11" cy="-104.474" rx="41.6928" ry="18"/>
<text text-anchor="middle" x="246.11" y="-100.774" font-family="Times New Roman,serif" font-size="14.00">_:autos8</text>
</g>
<!-- http://dbpedia.org/void/Dataset&#45;&gt;_:autos8 -->
<g id="edge23" class="edge"><title>http://dbpedia.org/void/Dataset&#45;&gt;_:autos8</title>
<path fill="none" stroke="black" d="M38.6173,-9.49373C84.5388,-30.5143 161.92,-65.9354 208.09,-87.0699"/>
<polygon fill="black" stroke="black" points="206.896,-90.3729 217.446,-91.3526 209.81,-84.008 206.896,-90.3729"/>
<text text-anchor="middle" x="80.3536" y="-52.0818" font-family="Times New Roman,serif" font-size="14.00">semstat:hasStat</text>
</g>
<!-- _:autos9 -->
<g id="node27" class="node"><title>_:autos9</title>
<ellipse fill="none" stroke="black" cx="63.4716" cy="255.266" rx="41.6928" ry="18"/>
<text text-anchor="middle" x="63.4716" y="258.966" font-family="Times New Roman,serif" font-size="14.00">_:autos9</text>
</g>
<!-- http://dbpedia.org/void/Dataset&#45;&gt;_:autos9 -->
<g id="edge26" class="edge"><title>http://dbpedia.org/void/Dataset&#45;&gt;_:autos9</title>
<path fill="none" stroke="black" d="M5.72879,25.866C16.5381,68.8092 43.6785,176.632 56.5245,227.666"/>
<polygon fill="black" stroke="black" points="59.919,226.814 58.9659,237.366 53.1308,228.523 59.919,226.814"/>
<text text-anchor="middle" x="-11.8734" y="137.966" font-family="Times New Roman,serif" font-size="14.00">semstat:hasStat</text>
</g>
<!-- _:autos10 -->
<g id="node30" class="node"><title>_:autos10</title>
<ellipse fill="none" stroke="black" cx="-39.8341" cy="253.463" rx="46.2923" ry="18"/>
<text text-anchor="middle" x="-39.8341" y="257.163" font-family="Times New Roman,serif" font-size="14.00">_:autos10</text>
</g>
<!-- http://dbpedia.org/void/Dataset&#45;&gt;_:autos10 -->
<g id="edge29" class="edge"><title>http://dbpedia.org/void/Dataset&#45;&gt;_:autos10</title>
<path fill="none" stroke="black" d="M-1.86752,25.7334C-8.9427,68.1715 -26.659,174.437 -35.1513,225.375"/>
<polygon fill="black" stroke="black" points="-31.7194,226.074 -36.8163,235.362 -38.6241,224.923 -31.7194,226.074"/>
<text text-anchor="middle" x="24.4906" y="121.754" font-family="Times New Roman,serif" font-size="14.00">semstat:hasStat</text>
</g>
<!-- _:autos11 -->
<g id="node33" class="node"><title>_:autos11</title>
<ellipse fill="none" stroke="black" cx="-87.9395" cy="-283.09" rx="46.2923" ry="18"/>
<text text-anchor="middle" x="-87.9395" y="-279.39" font-family="Times New Roman,serif" font-size="14.00">_:autos11</text>
</g>
<!-- http://dbpedia.org/void/Dataset&#45;&gt;_:autos11 -->
<g id="edge32" class="edge"><title>http://dbpedia.org/void/Dataset&#45;&gt;_:autos11</title>
<path fill="none" stroke="black" d="M-4.42685,-10.5288C-19.5192,-59.7858 -61.2641,-196.029 -79.3735,-255.133"/>
<polygon fill="black" stroke="black" points="-82.7857,-254.322 -82.3689,-264.909 -76.0928,-256.373 -82.7857,-254.322"/>
<text text-anchor="middle" x="-84.9002" y="-136.631" font-family="Times New Roman,serif" font-size="14.00">semstat:hasStat</text>
</g>
<!-- _:autos12 -->
<g id="node37" class="node"><title>_:autos12</title>
<ellipse fill="none" stroke="black" cx="174.94" cy="-211.651" rx="46.2923" ry="18"/>
<text text-anchor="middle" x="174.94" y="-207.951" font-family="Times New Roman,serif" font-size="14.00">_:autos12</text>
</g>
<!-- http://dbpedia.org/void/Dataset&#45;&gt;_:autos12 -->
<g id="edge36" class="edge"><title>http://dbpedia.org/void/Dataset&#45;&gt;_:autos12</title>
<path fill="none" stroke="black" d="M15.3681,-10.2882C46.213,-49.2112 119.335,-141.484 154.867,-186.321"/>
<polygon fill="black" stroke="black" points="152.293,-188.709 161.247,-194.372 157.779,-184.361 152.293,-188.709"/>
<text text-anchor="middle" x="128.118" y="-102.105" font-family="Times New Roman,serif" font-size="14.00">semstat:hasStat</text>
</g>
<!-- _:autos13 -->
<g id="node40" class="node"><title>_:autos13</title>
<ellipse fill="none" stroke="black" cx="215.777" cy="177.3" rx="46.2923" ry="18"/>
<text text-anchor="middle" x="215.777" y="181" font-family="Times New Roman,serif" font-size="14.00">_:autos13</text>
</g>
<!-- http://dbpedia.org/void/Dataset&#45;&gt;_:autos13 -->
<g id="edge39" class="edge"><title>http://dbpedia.org/void/Dataset&#45;&gt;_:autos13</title>
<path fill="none" stroke="black" d="M23.7094,25.4928C63.0418,56.5806 144.077,120.629 187.244,154.748"/>
<polygon fill="black" stroke="black" points="189.422,152.008 195.097,160.955 185.082,157.5 189.422,152.008"/>
<text text-anchor="middle" x="62.4767" y="86.3205" font-family="Times New Roman,serif" font-size="14.00">semstat:hasStat</text>
</g>
<!-- _:autos14 -->
<g id="node43" class="node"><title>_:autos14</title>
<ellipse fill="none" stroke="black" cx="-238.568" cy="-93.0268" rx="46.2923" ry="18"/>
<text text-anchor="middle" x="-238.568" y="-89.3268" font-family="Times New Roman,serif" font-size="14.00">_:autos14</text>
</g>
<!-- http://dbpedia.org/void/Dataset&#45;&gt;_:autos14 -->
<g id="edge42" class="edge"><title>http://dbpedia.org/void/Dataset&#45;&gt;_:autos14</title>
<path fill="none" stroke="black" d="M-39.5183,-9.4211C-83.5721,-27.9248 -153.462,-57.28 -197.624,-75.8294"/>
<polygon fill="black" stroke="black" points="-199.045,-72.6301 -206.91,-79.7296 -196.335,-79.0839 -199.045,-72.6301"/>
<text text-anchor="middle" x="-161.571" y="-46.4253" font-family="Times New Roman,serif" font-size="14.00">semstat:hasStat</text>
</g>
<!-- semstat:OwlSameAs -->
<g id="node4" class="node"><title>semstat:OwlSameAs</title>
<ellipse fill="none" stroke="black" cx="-81.8719" cy="-545.552" rx="85.2851" ry="18"/>
<text text-anchor="middle" x="-81.8719" y="-541.852" font-family="Times New Roman,serif" font-size="14.00">semstat:OwlSameAs</text>
</g>
<!-- _:autos1&#45;&gt;semstat:OwlSameAs -->
<g id="edge3" class="edge"><title>_:autos1&#45;&gt;semstat:OwlSameAs</title>
<path fill="none" stroke="black" d="M35.1055,-276.245C13.9217,-325.014 -44.7496,-460.089 -70.0305,-518.291"/>
<polygon fill="black" stroke="black" points="-73.2953,-517.022 -74.0691,-527.589 -66.8748,-519.811 -73.2953,-517.022"/>
<text text-anchor="middle" x="-95.9625" y="-401.068" font-family="Times New Roman,serif" font-size="14.00">semstat:hasSemanticFeature</text>
</g>
<!-- &#45;1341239381 -->
<g id="node5" class="node"><title>&#45;1341239381</title>
<polygon fill="none" stroke="black" points="298.338,-551.6 155.338,-551.6 155.338,-515.6 298.338,-515.6 298.338,-551.6"/>
<text text-anchor="middle" x="226.838" y="-529.9" font-family="Times New Roman,serif" font-size="14.00">33624480^^xsd:integer</text>
</g>
<!-- _:autos1&#45;&gt;&#45;1341239381 -->
<g id="edge4" class="edge"><title>_:autos1&#45;&gt;&#45;1341239381</title>
<path fill="none" stroke="black" d="M54.6965,-275.916C86.0153,-322.798 171.471,-450.719 208.888,-506.73"/>
<polygon fill="black" stroke="black" points="206.207,-509.018 214.673,-515.39 212.028,-505.13 206.207,-509.018"/>
<text text-anchor="middle" x="65.7922" y="-395.123" font-family="Times New Roman,serif" font-size="14.00">semstat:definitionCount</text>
</g>
<!-- semstat:OwlDifferentFrom -->
<g id="node7" class="node"><title>semstat:OwlDifferentFrom</title>
<ellipse fill="none" stroke="black" cx="515.627" cy="182.71" rx="106.681" ry="18"/>
<text text-anchor="middle" x="515.627" y="186.41" font-family="Times New Roman,serif" font-size="14.00">semstat:OwlDifferentFrom</text>
</g>
<!-- _:autos2&#45;&gt;semstat:OwlDifferentFrom -->
<g id="edge6" class="edge"><title>_:autos2&#45;&gt;semstat:OwlDifferentFrom</title>
<path fill="none" stroke="black" d="M221.552,131.527C272.617,140.414 363.728,156.272 431.046,167.989"/>
<polygon fill="black" stroke="black" points="431.965,164.596 441.217,169.759 430.765,171.492 431.965,164.596"/>
<text text-anchor="middle" x="404.799" y="145.958" font-family="Times New Roman,serif" font-size="14.00">semstat:hasSemanticFeature</text>
</g>
<!-- 2016871055 -->
<g id="node8" class="node"><title>2016871055</title>
<polygon fill="none" stroke="black" points="345.83,387.389 223.83,387.389 223.83,423.389 345.83,423.389 345.83,387.389"/>
<text text-anchor="middle" x="284.83" y="409.089" font-family="Times New Roman,serif" font-size="14.00">57623^^xsd:integer</text>
</g>
<!-- _:autos2&#45;&gt;2016871055 -->
<g id="edge7" class="edge"><title>_:autos2&#45;&gt;2016871055</title>
<path fill="none" stroke="black" d="M189.254,142.747C206.613,190.449 253.925,320.461 274.756,377.704"/>
<polygon fill="black" stroke="black" points="278.078,376.601 278.209,387.195 271.5,378.995 278.078,376.601"/>
<text text-anchor="middle" x="298.005" y="256.426" font-family="Times New Roman,serif" font-size="14.00">semstat:definitionCount</text>
</g>
<!-- semstat:OwlDisjointWith -->
<g id="node10" class="node"><title>semstat:OwlDisjointWith</title>
<ellipse fill="none" stroke="black" cx="-371.367" cy="435.557" rx="100.983" ry="18"/>
<text text-anchor="middle" x="-371.367" y="439.257" font-family="Times New Roman,serif" font-size="14.00">semstat:OwlDisjointWith</text>
</g>
<!-- _:autos3&#45;&gt;semstat:OwlDisjointWith -->
<g id="edge9" class="edge"><title>_:autos3&#45;&gt;semstat:OwlDisjointWith</title>
<path fill="none" stroke="black" d="M-155.711,243.547C-196.64,279.988 -295.539,368.044 -343.864,411.07"/>
<polygon fill="black" stroke="black" points="-341.65,413.785 -351.446,417.821 -346.305,408.557 -341.65,413.785"/>
<text text-anchor="middle" x="-328.288" y="323.508" font-family="Times New Roman,serif" font-size="14.00">semstat:hasSemanticFeature</text>
</g>
<!-- &#45;704401187 -->
<g id="node11" class="node"><title>&#45;704401187</title>
<polygon fill="none" stroke="black" points="-111.483,527.482 -220.483,527.482 -220.483,563.482 -111.483,563.482 -111.483,527.482"/>
<text text-anchor="middle" x="-165.983" y="549.182" font-family="Times New Roman,serif" font-size="14.00">173^^xsd:integer</text>
</g>
<!-- _:autos3&#45;&gt;&#45;704401187 -->
<g id="edge10" class="edge"><title>_:autos3&#45;&gt;&#45;704401187</title>
<path fill="none" stroke="black" d="M-138.97,245.221C-143.723,298.055 -157.65,452.852 -163.427,517.064"/>
<polygon fill="black" stroke="black" points="-159.962,517.615 -164.344,527.261 -166.934,516.987 -159.962,517.615"/>
<text text-anchor="middle" x="-217.198" y="377.342" font-family="Times New Roman,serif" font-size="14.00">semstat:definitionCount</text>
</g>
<!-- semstat:RdfsDomain -->
<g id="node13" class="node"><title>semstat:RdfsDomain</title>
<ellipse fill="none" stroke="black" cx="-453.775" cy="345.884" rx="86.3847" ry="18"/>
<text text-anchor="middle" x="-453.775" y="349.584" font-family="Times New Roman,serif" font-size="14.00">semstat:RdfsDomain</text>
</g>
<!-- _:autos4&#45;&gt;semstat:RdfsDomain -->
<g id="edge12" class="edge"><title>_:autos4&#45;&gt;semstat:RdfsDomain</title>
<path fill="none" stroke="black" d="M-244.751,148.027C-284.281,185.445 -381.065,277.058 -427.75,321.249"/>
<polygon fill="black" stroke="black" points="-425.394,323.838 -435.062,328.171 -430.206,318.754 -425.394,323.838"/>
<text text-anchor="middle" x="-414.751" y="230.838" font-family="Times New Roman,serif" font-size="14.00">semstat:hasSemanticFeature</text>
</g>
<!-- &#45;993493378 -->
<g id="node14" class="node"><title>&#45;993493378</title>
<polygon fill="none" stroke="black" points="-488.739,128.509 -604.739,128.509 -604.739,164.509 -488.739,164.509 -488.739,128.509"/>
<text text-anchor="middle" x="-546.739" y="150.209" font-family="Times New Roman,serif" font-size="14.00">5884^^xsd:integer</text>
</g>
<!-- _:autos4&#45;&gt;&#45;993493378 -->
<g id="edge13" class="edge"><title>_:autos4&#45;&gt;&#45;993493378</title>
<path fill="none" stroke="black" d="M-268.786,133.504C-321.867,135.988 -414.609,140.327 -478.261,143.305"/>
<polygon fill="black" stroke="black" points="-478.457,146.818 -488.61,143.79 -478.784,139.826 -478.457,146.818"/>
<text text-anchor="middle" x="-340.524" y="149.605" font-family="Times New Roman,serif" font-size="14.00">semstat:definitionCount</text>
</g>
<!-- semstat:OwlEquivalentClass -->
<g id="node16" class="node"><title>semstat:OwlEquivalentClass</title>
<ellipse fill="none" stroke="black" cx="-516.738" cy="-159.233" rx="112.38" ry="18"/>
<text text-anchor="middle" x="-516.738" y="-155.533" font-family="Times New Roman,serif" font-size="14.00">semstat:OwlEquivalentClass</text>
</g>
<!-- _:autos5&#45;&gt;semstat:OwlEquivalentClass -->
<g id="edge15" class="edge"><title>_:autos5&#45;&gt;semstat:OwlEquivalentClass</title>
<path fill="none" stroke="black" d="M-261.837,6.77144C-310.518,-24.9321 -423.479,-98.4981 -481.28,-136.141"/>
<polygon fill="black" stroke="black" points="-483.26,-133.254 -489.729,-141.644 -479.44,-139.119 -483.26,-133.254"/>
<text text-anchor="middle" x="-293.058" y="-53.4849" font-family="Times New Roman,serif" font-size="14.00">semstat:hasSemanticFeature</text>
</g>
<!-- 1583012644 -->
<g id="node17" class="node"><title>1583012644</title>
<polygon fill="none" stroke="black" points="-445.527,179.229 -574.527,179.229 -574.527,215.229 -445.527,215.229 -445.527,179.229"/>
<text text-anchor="middle" x="-510.027" y="200.929" font-family="Times New Roman,serif" font-size="14.00">570058^^xsd:integer</text>
</g>
<!-- _:autos5&#45;&gt;1583012644 -->
<g id="edge16" class="edge"><title>_:autos5&#45;&gt;1583012644</title>
<path fill="none" stroke="black" d="M-262.214,37.1558C-309.593,67.7601 -416.552,136.85 -473.208,173.446"/>
<polygon fill="black" stroke="black" points="-471.553,176.544 -481.852,179.03 -475.351,170.664 -471.553,176.544"/>
<text text-anchor="middle" x="-433.711" y="101.501" font-family="Times New Roman,serif" font-size="14.00">semstat:definitionCount</text>
</g>
<!-- semstat:OwlEquivalentProperty -->
<g id="node19" class="node"><title>semstat:OwlEquivalentProperty</title>
<ellipse fill="none" stroke="black" cx="-402.978" cy="-389.737" rx="124.278" ry="18"/>
<text text-anchor="middle" x="-402.978" y="-386.037" font-family="Times New Roman,serif" font-size="14.00">semstat:OwlEquivalentProperty</text>
</g>
<!-- _:autos6&#45;&gt;semstat:OwlEquivalentProperty -->
<g id="edge18" class="edge"><title>_:autos6&#45;&gt;semstat:OwlEquivalentProperty</title>
<path fill="none" stroke="black" d="M-196.924,-161.395C-235.015,-203.605 -334.692,-314.065 -379.987,-364.258"/>
<polygon fill="black" stroke="black" points="-382.67,-362.008 -386.771,-371.777 -377.473,-366.697 -382.67,-362.008"/>
<text text-anchor="middle" x="-366.955" y="-266.627" font-family="Times New Roman,serif" font-size="14.00">semstat:hasSemanticFeature</text>
</g>
<!-- &#45;153388190 -->
<g id="node20" class="node"><title>&#45;153388190</title>
<polygon fill="none" stroke="black" points="-394.206,-96.9921 -503.206,-96.9921 -503.206,-60.9921 -394.206,-60.9921 -394.206,-96.9921"/>
<text text-anchor="middle" x="-448.706" y="-75.2921" font-family="Times New Roman,serif" font-size="14.00">728^^xsd:integer</text>
</g>
<!-- _:autos6&#45;&gt;&#45;153388190 -->
<g id="edge19" class="edge"><title>_:autos6&#45;&gt;&#45;153388190</title>
<path fill="none" stroke="black" d="M-218.001,-135.633C-260.596,-125.176 -332.029,-107.638 -384.145,-94.8427"/>
<polygon fill="black" stroke="black" points="-383.422,-91.4164 -393.968,-92.431 -385.091,-98.2145 -383.422,-91.4164"/>
<text text-anchor="middle" x="-367.073" y="-119.038" font-family="Times New Roman,serif" font-size="14.00">semstat:definitionCount</text>
</g>
<!-- semstat:OwlInverseOf -->
<g id="node22" class="node"><title>semstat:OwlInverseOf</title>
<ellipse fill="none" stroke="black" cx="538.378" cy="-171.142" rx="90.9839" ry="18"/>
<text text-anchor="middle" x="538.378" y="-167.442" font-family="Times New Roman,serif" font-size="14.00">semstat:OwlInverseOf</text>
</g>
<!-- _:autos7&#45;&gt;semstat:OwlInverseOf -->
<g id="edge21" class="edge"><title>_:autos7&#45;&gt;semstat:OwlInverseOf</title>
<path fill="none" stroke="black" d="M290.571,-27.8088C338.56,-55.5658 443.339,-116.171 500.065,-148.982"/>
<polygon fill="black" stroke="black" points="498.331,-152.022 508.74,-154 501.836,-145.963 498.331,-152.022"/>
<text text-anchor="middle" x="395.318" y="-77.1953" font-family="Times New Roman,serif" font-size="14.00">semstat:hasSemanticFeature</text>
</g>
<!-- &#45;1258389534 -->
<g id="node23" class="node"><title>&#45;1258389534</title>
<polygon fill="none" stroke="black" points="621.026,39.622 526.026,39.622 526.026,75.622 621.026,75.622 621.026,39.622"/>
<text text-anchor="middle" x="573.526" y="61.322" font-family="Times New Roman,serif" font-size="14.00">5^^xsd:integer</text>
</g>
<!-- _:autos7&#45;&gt;&#45;1258389534 -->
<g id="edge22" class="edge"><title>_:autos7&#45;&gt;&#45;1258389534</title>
<path fill="none" stroke="black" d="M302.241,-4.75966C355.13,7.40203 453.05,29.9186 515.651,44.3137"/>
<polygon fill="black" stroke="black" points="516.802,40.987 525.763,46.6391 515.233,47.809 516.802,40.987"/>
<text text-anchor="middle" x="342.946" y="15.977" font-family="Times New Roman,serif" font-size="14.00">semstat:definitionCount</text>
</g>
<!-- semstat:RdfsRange -->
<g id="node25" class="node"><title>semstat:RdfsRange</title>
<ellipse fill="none" stroke="black" cx="559.744" cy="-84.6396" rx="81.4863" ry="18"/>
<text text-anchor="middle" x="559.744" y="-80.9396" font-family="Times New Roman,serif" font-size="14.00">semstat:RdfsRange</text>
</g>
<!-- _:autos8&#45;&gt;semstat:RdfsRange -->
<g id="edge24" class="edge"><title>_:autos8&#45;&gt;semstat:RdfsRange</title>
<path fill="none" stroke="black" d="M287.435,-101.86C333.978,-98.9169 410.98,-94.0474 471.248,-90.2361"/>
<polygon fill="black" stroke="black" points="471.771,-93.7101 481.53,-89.5858 471.329,-86.724 471.771,-93.7101"/>
<text text-anchor="middle" x="457.841" y="-99.8482" font-family="Times New Roman,serif" font-size="14.00">semstat:hasSemanticFeature</text>
</g>
<!-- 2082166017 -->
<g id="node26" class="node"><title>2082166017</title>
<polygon fill="none" stroke="black" points="545.919,-316.745 429.919,-316.745 429.919,-280.745 545.919,-280.745 545.919,-316.745"/>
<text text-anchor="middle" x="487.919" y="-295.045" font-family="Times New Roman,serif" font-size="14.00">6053^^xsd:integer</text>
</g>
<!-- _:autos8&#45;&gt;2082166017 -->
<g id="edge25" class="edge"><title>_:autos8&#45;&gt;2082166017</title>
<path fill="none" stroke="black" d="M265.898,-120.372C308.103,-154.279 407.196,-233.891 457.489,-274.297"/>
<polygon fill="black" stroke="black" points="455.428,-277.131 465.416,-280.666 459.812,-271.674 455.428,-277.131"/>
<text text-anchor="middle" x="295.693" y="-201.134" font-family="Times New Roman,serif" font-size="14.00">semstat:definitionCount</text>
</g>
<!-- semstat:RdfsSubClassOf -->
<g id="node28" class="node"><title>semstat:RdfsSubClassOf</title>
<ellipse fill="none" stroke="black" cx="300.356" cy="515.183" rx="102.882" ry="18"/>
<text text-anchor="middle" x="300.356" y="518.883" font-family="Times New Roman,serif" font-size="14.00">semstat:RdfsSubClassOf</text>
</g>
<!-- _:autos9&#45;&gt;semstat:RdfsSubClassOf -->
<g id="edge27" class="edge"><title>_:autos9&#45;&gt;semstat:RdfsSubClassOf</title>
<path fill="none" stroke="black" d="M79.0142,272.32C119.645,316.9 229.19,437.097 277.237,489.815"/>
<polygon fill="black" stroke="black" points="279.983,487.633 284.133,497.381 274.81,492.348 279.983,487.633"/>
<text text-anchor="middle" x="99.6256" y="377.267" font-family="Times New Roman,serif" font-size="14.00">semstat:hasSemanticFeature</text>
</g>
<!-- &#45;518011153 -->
<g id="node29" class="node"><title>&#45;518011153</title>
<polygon fill="none" stroke="black" points="32.5577,551.233 -103.442,551.233 -103.442,587.233 32.5577,587.233 32.5577,551.233"/>
<text text-anchor="middle" x="-35.4423" y="572.933" font-family="Times New Roman,serif" font-size="14.00">1191946^^xsd:integer</text>
</g>
<!-- _:autos9&#45;&gt;&#45;518011153 -->
<g id="edge28" class="edge"><title>_:autos9&#45;&gt;&#45;518011153</title>
<path fill="none" stroke="black" d="M57.726,273.503C41.1657,326.068 -6.74585,478.146 -26.6307,541.264"/>
<polygon fill="black" stroke="black" points="-23.3377,542.459 -29.6808,550.945 -30.0142,540.356 -23.3377,542.459"/>
<text text-anchor="middle" x="-50.4523" y="403.583" font-family="Times New Roman,serif" font-size="14.00">semstat:definitionCount</text>
</g>
<!-- semstat:RdfType -->
<g id="node31" class="node"><title>semstat:RdfType</title>
<ellipse fill="none" stroke="black" cx="-251.692" cy="501.427" rx="73.387" ry="18"/>
<text text-anchor="middle" x="-251.692" y="505.127" font-family="Times New Roman,serif" font-size="14.00">semstat:RdfType</text>
</g>
<!-- _:autos10&#45;&gt;semstat:RdfType -->
<g id="edge30" class="edge"><title>_:autos10&#45;&gt;semstat:RdfType</title>
<path fill="none" stroke="black" d="M-54.7315,270.899C-91.4899,313.922 -186.65,425.3 -229.82,475.828"/>
<polygon fill="black" stroke="black" points="-227.371,478.349 -236.527,483.678 -232.693,473.802 -227.371,478.349"/>
<text text-anchor="middle" x="-63.7758" y="369.564" font-family="Times New Roman,serif" font-size="14.00">semstat:hasSemanticFeature</text>
</g>
<!-- 104552854 -->
<g id="node32" class="node"><title>104552854</title>
<polygon fill="none" stroke="black" points="189.612,530.969 40.6124,530.969 40.6124,566.969 189.612,566.969 189.612,530.969"/>
<text text-anchor="middle" x="115.112" y="552.669" font-family="Times New Roman,serif" font-size="14.00">286405045^^xsd:integer</text>
</g>
<!-- _:autos10&#45;&gt;104552854 -->
<g id="edge31" class="edge"><title>_:autos10&#45;&gt;104552854</title>
<path fill="none" stroke="black" d="M-30.3747,271.503C-4.17147,321.477 69.4779,461.937 100.764,521.605"/>
<polygon fill="black" stroke="black" points="104.036,520.307 105.58,530.789 97.8364,523.558 104.036,520.307"/>
<text text-anchor="middle" x="101.195" y="392.754" font-family="Times New Roman,serif" font-size="14.00">semstat:definitionCount</text>
</g>
<!-- semstat:OwlFunctionalProperty -->
<g id="node34" class="node"><title>semstat:OwlFunctionalProperty</title>
<ellipse fill="none" stroke="black" cx="-322.82" cy="-490.972" rx="124.578" ry="18"/>
<text text-anchor="middle" x="-322.82" y="-487.272" font-family="Times New Roman,serif" font-size="14.00">semstat:OwlFunctionalProperty</text>
</g>
<!-- _:autos11&#45;&gt;semstat:OwlFunctionalProperty -->
<g id="edge33" class="edge"><title>_:autos11&#45;&gt;semstat:OwlFunctionalProperty</title>
<path fill="none" stroke="black" d="M-106.764,-299.75C-148.011,-336.257 -246.537,-423.457 -294.973,-466.326"/>
<polygon fill="black" stroke="black" points="-297.409,-463.808 -302.578,-473.057 -292.77,-469.05 -297.409,-463.808"/>
<text text-anchor="middle" x="-122.368" y="-371.838" font-family="Times New Roman,serif" font-size="14.00">semstat:hasSemanticFeature</text>
</g>
<!-- &#45;358146885 -->
<g id="node35" class="node"><title>&#45;358146885</title>
<polygon fill="none" stroke="black" points="-175.033,-573.202 -284.033,-573.202 -284.033,-537.202 -175.033,-537.202 -175.033,-573.202"/>
<text text-anchor="middle" x="-229.533" y="-551.502" font-family="Times New Roman,serif" font-size="14.00">160^^xsd:integer</text>
</g>
<!-- _:autos11&#45;&gt;&#45;358146885 -->
<g id="edge34" class="edge"><title>_:autos11&#45;&gt;&#45;358146885</title>
<path fill="none" stroke="black" d="M-97.2298,-300.944C-121.425,-347.441 -186.502,-472.506 -215.388,-528.018"/>
<polygon fill="black" stroke="black" points="-218.512,-526.439 -220.023,-536.926 -212.302,-529.671 -218.512,-526.439"/>
<text text-anchor="middle" x="-222.309" y="-418.281" font-family="Times New Roman,serif" font-size="14.00">semstat:definitionCount</text>
</g>
<!-- &#45;1867596277 -->
<g id="node36" class="node"><title>&#45;1867596277</title>
<polygon fill="none" stroke="black" points="147.287,-588.968 11.2867,-588.968 11.2867,-552.968 147.287,-552.968 147.287,-588.968"/>
<text text-anchor="middle" x="79.2867" y="-567.268" font-family="Times New Roman,serif" font-size="14.00">3461431^^xsd:integer</text>
</g>
<!-- _:autos11&#45;&gt;&#45;1867596277 -->
<g id="edge35" class="edge"><title>_:autos11&#45;&gt;&#45;1867596277</title>
<path fill="none" stroke="black" d="M-77.7305,-300.665C-49.5178,-349.232 29.6583,-485.533 63.56,-543.895"/>
<polygon fill="black" stroke="black" points="60.7349,-545.999 68.7844,-552.888 66.7878,-542.483 60.7349,-545.999"/>
<text text-anchor="middle" x="-63.0852" y="-426.08" font-family="Times New Roman,serif" font-size="14.00">semstat:usageCount</text>
</g>
<!-- semstat:OwlInverseFunctionalProperty -->
<g id="node38" class="node"><title>semstat:OwlInverseFunctionalProperty</title>
<ellipse fill="none" stroke="black" cx="428.036" cy="-390.429" rx="151.373" ry="18"/>
<text text-anchor="middle" x="428.036" y="-386.729" font-family="Times New Roman,serif" font-size="14.00">semstat:OwlInverseFunctionalProperty</text>
</g>
<!-- _:autos12&#45;&gt;semstat:OwlInverseFunctionalProperty -->
<g id="edge37" class="edge"><title>_:autos12&#45;&gt;semstat:OwlInverseFunctionalProperty</title>
<path fill="none" stroke="black" d="M197.401,-227.517C241.98,-259.006 341.853,-329.553 394.34,-366.627"/>
<polygon fill="black" stroke="black" points="392.46,-369.584 402.647,-372.495 396.499,-363.867 392.46,-369.584"/>
<text text-anchor="middle" x="217.37" y="-300.872" font-family="Times New Roman,serif" font-size="14.00">semstat:hasSemanticFeature</text>
</g>
<!-- 1308614225 -->
<g id="node39" class="node"><title>1308614225</title>
<polygon fill="none" stroke="black" points="376.802,-506.218 281.802,-506.218 281.802,-470.218 376.802,-470.218 376.802,-506.218"/>
<text text-anchor="middle" x="329.302" y="-484.518" font-family="Times New Roman,serif" font-size="14.00">3^^xsd:integer</text>
</g>
<!-- _:autos12&#45;&gt;1308614225 -->
<g id="edge38" class="edge"><title>_:autos12&#45;&gt;1308614225</title>
<path fill="none" stroke="black" d="M184.831,-229.373C211.061,-276.369 282.539,-404.434 314.043,-460.878"/>
<polygon fill="black" stroke="black" points="311.163,-462.899 319.093,-469.926 317.275,-459.488 311.163,-462.899"/>
<text text-anchor="middle" x="183.437" y="-348.925" font-family="Times New Roman,serif" font-size="14.00">semstat:definitionCount</text>
</g>
<!-- semstat:OwlSymmetricProperty -->
<g id="node41" class="node"><title>semstat:OwlSymmetricProperty</title>
<ellipse fill="none" stroke="black" cx="479.984" cy="423.842" rx="126.178" ry="18"/>
<text text-anchor="middle" x="479.984" y="427.542" font-family="Times New Roman,serif" font-size="14.00">semstat:OwlSymmetricProperty</text>
</g>
<!-- _:autos13&#45;&gt;semstat:OwlSymmetricProperty -->
<g id="edge40" class="edge"><title>_:autos13&#45;&gt;semstat:OwlSymmetricProperty</title>
<path fill="none" stroke="black" d="M233.937,194.246C279.607,236.863 399.425,348.67 453.194,398.844"/>
<polygon fill="black" stroke="black" points="455.708,396.402 460.631,405.784 450.932,401.52 455.708,396.402"/>
<text text-anchor="middle" x="265.065" y="292.745" font-family="Times New Roman,serif" font-size="14.00">semstat:hasSemanticFeature</text>
</g>
<!-- &#45;1545636144 -->
<g id="node42" class="node"><title>&#45;1545636144</title>
<polygon fill="none" stroke="black" points="573.394,261.746 471.394,261.746 471.394,297.746 573.394,297.746 573.394,261.746"/>
<text text-anchor="middle" x="522.394" y="283.446" font-family="Times New Roman,serif" font-size="14.00">38^^xsd:integer</text>
</g>
<!-- _:autos13&#45;&gt;&#45;1545636144 -->
<g id="edge41" class="edge"><title>_:autos13&#45;&gt;&#45;1545636144</title>
<path fill="none" stroke="black" d="M250.95,189.052C302.313,206.213 398.567,238.373 461.562,259.421"/>
<polygon fill="black" stroke="black" points="463,256.211 471.375,262.7 460.781,262.85 463,256.211"/>
<text text-anchor="middle" x="290.256" y="220.436" font-family="Times New Roman,serif" font-size="14.00">semstat:definitionCount</text>
</g>
<!-- semstat:OwlTransitiveProperty -->
<g id="node44" class="node"><title>semstat:OwlTransitiveProperty</title>
<ellipse fill="none" stroke="black" cx="-633.462" cy="-87.009" rx="122.379" ry="18"/>
<text text-anchor="middle" x="-633.462" y="-83.309" font-family="Times New Roman,serif" font-size="14.00">semstat:OwlTransitiveProperty</text>
</g>
<!-- _:autos14&#45;&gt;semstat:OwlTransitiveProperty -->
<g id="edge43" class="edge"><title>_:autos14&#45;&gt;semstat:OwlTransitiveProperty</title>
<path fill="none" stroke="black" d="M-285.029,-92.3188C-337.896,-91.5131 -426.585,-90.1616 -501.251,-89.0238"/>
<polygon fill="black" stroke="black" points="-501.636,-85.5176 -511.689,-88.8647 -501.743,-92.5168 -501.636,-85.5176"/>
<text text-anchor="middle" x="-353.89" y="-79.4713" font-family="Times New Roman,serif" font-size="14.00">semstat:hasSemanticFeature</text>
</g>
<!-- &#45;239925014 -->
<g id="node45" class="node"><title>&#45;239925014</title>
<polygon fill="none" stroke="black" points="-431.296,-332.111 -533.296,-332.111 -533.296,-296.111 -431.296,-296.111 -431.296,-332.111"/>
<text text-anchor="middle" x="-482.296" y="-310.411" font-family="Times New Roman,serif" font-size="14.00">51^^xsd:integer</text>
</g>
<!-- _:autos14&#45;&gt;&#45;239925014 -->
<g id="edge44" class="edge"><title>_:autos14&#45;&gt;&#45;239925014</title>
<path fill="none" stroke="black" d="M-256.887,-109.644C-299.341,-148.154 -404.652,-243.681 -454.844,-289.21"/>
<polygon fill="black" stroke="black" points="-457.353,-286.761 -462.409,-296.072 -452.65,-291.946 -457.353,-286.761"/>
<text text-anchor="middle" x="-421.866" y="-203.227" font-family="Times New Roman,serif" font-size="14.00">semstat:definitionCount</text>
</g>
</g>
</svg>
